<?xml version="1.0" encoding="UTF-8"?>
<svg width="486px" height="521px" viewBox="0 0 486 521" version="1.1" xmlns="http://www.w3.org/2000/svg" xmlns:xlink="http://www.w3.org/1999/xlink">
    <!-- Generator: Sketch 55.2 (78181) - https://sketchapp.com -->
    <title>Casted_Symbol_FullColor</title>
    <desc>Created with Sketch.</desc>
    <defs>
        <linearGradient x1="50%" y1="0%" x2="50%" y2="100%" id="linearGradient-1">
            <stop stop-color="#928AFF" offset="0%"></stop>
            <stop stop-color="#5952FF" offset="100%"></stop>
        </linearGradient>
    </defs>
    <g id="Page-1" stroke="none" stroke-width="1" fill="none" fill-rule="evenodd">
        <g id="Dynamic-Sound---Pattern-System---1-Copy-5" transform="translate(-369.000000, -531.000000)" fill="url(#linearGradient-1)">
            <g id="Casted_Symbol_FullColor" transform="translate(369.000000, 531.000000)">
                <path d="M202.257277,498.416502 C204.94175,489.729908 200.120133,480.498729 191.488691,477.796393 C146.459308,463.703068 106.019311,434.894624 77.6164767,396.677933 C48.2560709,357.172357 32.7374816,310.135243 32.7374816,260.652128 C32.7374816,240.339828 35.3963789,220.202536 40.6425604,200.79925 C43.0170508,192.022064 37.8690819,182.970011 29.145566,180.58269 C20.4281885,178.192281 11.4274272,183.373559 9.05395976,192.151776 C3.04560884,214.371668 0,237.419246 0,260.652128 C0,317.302352 17.7733834,371.161707 51.3998922,416.406529 C83.9020732,460.140103 130.200033,493.113747 181.765659,509.252611 C183.385142,509.760136 185.020993,510 186.63229,510 C193.609466,510 200.075119,505.473459 202.257277,498.416502 M390.770295,485.060777 C429.256701,462.245821 461.423311,429.631976 483.793623,390.746594 C488.327523,382.865439 485.650217,372.779044 477.812974,368.218113 C469.97778,363.660275 459.946847,366.350873 455.412948,374.233059 C435.865436,408.214359 407.754233,436.714505 374.121406,456.651314 C339.497781,477.17653 299.825902,488.024454 259.393762,488.024454 C250.339282,488.024454 243,495.406855 243,504.512227 C243,513.61863 250.339282,521 259.393762,521 C305.676425,521 351.105589,508.572341 390.770295,485.060777 M477.817023,152.779252 C485.650685,148.220276 488.326768,138.133647 483.793915,130.251278 C461.433824,91.3660238 429.281912,58.7524516 390.813092,35.9390271 C351.167534,12.4269169 305.760152,0 259.49966,0 C213.239169,0 167.831787,12.4269169 128.186228,35.9390271 C89.7184328,58.7524516 57.5654964,91.3660238 35.2054054,130.251278 C30.6735772,138.133647 33.3496601,148.220276 41.1822977,152.779252 C49.0128871,157.339257 59.0402608,154.649627 63.572089,146.765197 C83.1127173,112.785169 111.209027,84.2853914 144.827511,64.3481195 C179.434291,43.8244876 219.087019,32.9763116 259.49966,32.9763116 C299.912302,32.9763116 339.566054,43.8244876 374.172834,64.3481195 C407.790293,84.2853914 435.887628,112.785169 455.428256,146.765197 C458.465861,152.04759 463.968576,155 469.625936,155 C472.411602,155 475.234137,154.283796 477.817023,152.779252 M421.802912,185.78662 C429.649708,181.239634 432.330628,171.181804 427.790608,163.32194 C411.006385,134.269526 386.872974,109.902819 357.995369,92.8565027 C328.232333,75.2881821 294.143709,66 259.415891,66 C250.349189,66 243,73.3614932 243,82.4410791 C243,91.5216926 250.349189,98.8821582 259.415891,98.8821582 C288.284262,98.8821582 316.60783,106.594052 341.325032,121.18551 C365.34148,135.360803 385.414011,155.626488 399.372649,179.789736 C402.414718,185.057047 407.928406,188 413.597018,188 C416.386694,188 419.214331,187.286868 421.802912,185.78662 M357.992448,428.124981 C386.871224,411.068594 411.005615,386.68602 427.790519,357.614689 C432.330723,349.749707 429.649694,339.685328 421.802579,335.135381 C413.953413,330.585435 403.910584,333.27016 399.371406,341.13617 C385.412203,365.314124 365.338858,385.593005 341.321435,399.778556 C316.60323,414.379515 288.278513,422.096431 259.408972,422.096431 C170.315291,422.096431 97.8331139,349.457688 97.8331139,260.172824 C97.8331139,191.038312 141.632488,129.488072 206.822636,107.013906 C215.396183,104.057726 219.954855,94.6966608 217.006031,86.1047162 C214.056181,77.5127716 204.711056,72.9432884 196.141613,75.8994685 C117.702278,102.94209 65,176.995686 65,260.172824 C65,367.600922 152.211933,455 259.408972,455 C294.138198,455 328.228205,445.706798 357.992448,428.124981 M259.10601,391 C187.365524,391 129,332.457732 129,260.5 C129,188.542268 187.365524,130 259.10601,130 C305.402772,130 348.580249,154.9928 371.790195,195.226843 C376.330602,203.099102 373.65048,213.171764 365.801988,217.725921 C357.953497,222.279048 347.910218,219.592867 343.369811,211.720609 C326.010578,181.628183 293.722895,162.934014 259.10601,162.934014 C205.470718,162.934014 161.834583,206.702289 161.834583,260.5 C161.834583,314.298741 205.470718,358.065986 259.10601,358.065986 C293.722895,358.065986 326.009551,339.371817 343.368785,309.28042 C347.911245,301.406103 357.955549,298.719923 365.800962,303.274079 C373.648427,307.828236 376.329576,317.900898 371.789169,325.773157 C348.579223,366.0072 305.401746,391 259.10601,391" id="Fill-34"></path>
            </g>
        </g>
    </g>
</svg>